# xmcd
#
# Track frame offsets:
# 150
# 19347
# 30936
# 42316
# 58535
# 69699
# 81169
# 94887
# 104297
# 117437
# 129687
#
# Disc length: 1838 seconds
#
# Revision: 0
# Processed by: cddbd v1.4PL0 Copyright (c) Steve Scherf et al.
# Submitted via: Audion 3.0.0 (http://www.panic.com/audion/)
#
DISCID=93072c0b
DTITLE=Hotrod Hillbillies - Let's Alcoholass
DYEAR=1900
DGENRE=
TTITLE0=Drinking Friends
TTITLE1=Sh'e My Chevy
TTITLE2=Whiskey and Wine
TTITLE3=Dragstrip Demon
TTITLE4=Bitch
TTITLE5=Comfortable Couch
TTITLE6=Come With me
TTITLE7=Race Car Driver
TTITLE8=Chickens And Pigs
TTITLE9=Marry Her
TTITLE10=Never
EXTD=
EXTT0=
EXTT1=
EXTT2=
EXTT3=
EXTT4=
EXTT5=
EXTT6=
EXTT7=
EXTT8=
EXTT9=
EXTT10=
PLAYORDER=
